<?xml version="1.0" encoding="UTF-8" standalone="no"?>
<!DOCTYPE svg PUBLIC "-//W3C//DTD SVG 1.1//EN" "http://www.w3.org/Graphics/SVG/1.1/DTD/svg11.dtd">
<svg xmlns="http://www.w3.org/2000/svg" xmlns:dc="http://purl.org/dc/elements/1.1/" xmlns:xl="http://www.w3.org/1999/xlink" version="1.1" viewBox="-24 -14 908 897" width="908" height="897">
  <defs>
    <linearGradient x1="0" x2="1" id="Gradient" gradientUnits="userSpaceOnUse">
      <stop offset="0" stop-color="#894ef8"/>
      <stop offset=".5922409" stop-color="#5787dd"/>
      <stop offset="1" stop-color="#00bfc0"/>
    </linearGradient>
    <linearGradient id="Obj_Gradient" xl:href="#Gradient" gradientTransform="translate(-47.99413 840.0125) rotate(-40) scale(1262.3135)"/>
  </defs>
  <g id="Canvas_7" stroke-dasharray="none" fill-opacity="1" fill="none" stroke="none" stroke-opacity="1">
    <title>Canvas 7</title>
    <g id="Canvas_7_Layer_4">
      <title>Layer 4</title>
      <g id="Graphic_17">
        <path d="M 752.2835 117.52928 C 927.2391 292.48403 927.2391 576.1415 752.2835 751.09625 C 577.32874 926.0519 293.67126 926.0519 118.71651 751.09625 C -56.239136 576.1415 -56.239136 292.48403 118.71651 117.52928 C 293.67126 -57.42637 577.32874 -57.42637 752.2835 117.52928" fill="url(#Obj_Gradient)"/>
      </g>
    </g>
    <g id="Canvas_7_Layer_3">
      <title>Layer 3</title>
      <g id="Graphic_3">
        <path d="M 488.1362 597.92336 C 488.1362 628.3109 472.97923 657.45375 445.99965 678.9419 C 419.02006 700.4301 382.42774 712.5 344.2731 712.5 L 248.36263 712.5 C 210.20798 712.5 173.61617 700.4301 146.63556 678.9419 C 119.65496 657.45375 104.5 628.3109 104.5 597.92336 L 104.5 216" stroke="white" stroke-linecap="round" stroke-linejoin="round" stroke-width="30"/>
      </g>
      <g id="Graphic_2">
        <path d="M 240.20814 598.37424 C 207.4746 596.4484 180.43272 576.3743 174.79892 550.125 C 167.02285 513.89453 159 476.344 159 437.86385 C 159 399.3837 167.02285 361.83373 174.79892 325.6033 C 180.43272 299.35395 207.4746 279.2793 240.20814 277.35402 C 251.50952 276.68895 262.88186 275.99926 274.3231 275.30567 C 342.65224 271.1614 413.40935 266.87006 485.88685 266.87006 C 558.36434 266.87006 629.12214 271.1614 697.4506 275.30567 C 708.8918 275.99926 720.2642 276.68895 731.56555 277.35402 C 764.2998 279.2793 791.341 299.35395 796.9741 325.6033 C 804.7527 361.83373 812.77245 399.3837 812.77245 437.86385 C 812.77245 476.344 804.7527 513.89453 796.9741 550.125 C 791.341 576.3743 764.2998 596.4484 731.56555 598.37424 C 720.2649 599.03876 708.8918 599.72844 697.4513 600.42204 C 669.2602 602.132 640.6557 603.8671 611.6881 605.31526 C 589.33065 570.62863 561.11545 539.2886 525.7321 514.3012 C 505.4815 500.0002 475.5914 499.9991 455.33944 514.2995 C 419.80517 539.39154 391.5004 570.89265 369.09883 605.7555 C 337.04806 604.22676 305.4334 602.3093 274.3231 600.4226 C 262.88186 599.72844 251.50952 599.03876 240.20814 598.37424 Z" stroke="white" stroke-linecap="butt" stroke-linejoin="round" stroke-width="30"/>
      </g>
      <g id="Line_18">
        <line x1="85.5" y1="400.96184" x2="173.5" y2="400.1334" stroke="white" stroke-linecap="round" stroke-linejoin="miter" stroke-width="33"/>
      </g>
      <g id="Graphic_20">
        <path d="M 799.6813 380.26683 L 703.1587 380.26683 C 654.8975 380.26683 606.6362 377.7335 606.6362 370.1334 C 606.6362 362.53335 654.8975 360 703.1587 360 L 799.6813 360 Z" fill="white"/>
      </g>
      <g id="Graphic_21">
        <path d="M 812.77245 420.40025 L 728.7499 420.40025 C 686.7387 420.40025 644.7274 417.8669 644.7274 410.26683 C 644.7274 402.66677 686.7387 400.1334 728.7499 400.1334 L 812.77245 400.1334 Z" fill="white"/>
      </g>
      <g id="Graphic_22">
        <path d="M 812.77245 463.76683 L 745.7043 463.76683 C 712.1703 463.76683 678.6362 461.2335 678.6362 453.6334 C 678.6362 446.03335 712.1703 443.5 745.7043 443.5 L 812.77245 443.5 Z" fill="white"/>
      </g>
    </g>
  </g>
</svg>
