<?xml version="1.0" encoding="UTF-8" standalone="yes"?>
<!DOCTYPE svg PUBLIC "-//W3C//DTD SVG 1.1//EN" "http://www.w3.org/Graphics/SVG/1.1/DTD/svg11.dtd">

<svg width="500" height="500" viewBox="0 0 500 500" xmlns="http://www.w3.org/2000/svg" xmlns:xlink="http://www.w3.org/1999/xlink" version="1.1" baseProfile="full">
    <defs>
        <linearGradient id="105553126890608140488559843152" x1="100.000000%" x2="100.000000%" y1="0.000000%" y2="100.000000%">
            <stop offset="0%" style="stop-color:#ff9200;stop-opacity:1.000000"></stop>
            <stop offset="100%" style="stop-color:#d4ff00;stop-opacity:1.000000"></stop>
        </linearGradient>
    </defs>
    <g transform="scale(1.000000,-1.000000) translate(0,-500)">
        <path d="M 300.612000 150.806000 C 300.612000 233.541569 233.541569 300.612000 150.806000 300.612000 C 68.070431 300.612000 1.000000 233.541569 1.000000 150.806000 C 1.000000 68.070431 68.070431 1.000000 150.806000 1.000000 C 233.541569 1.000000 300.612000 68.070431 300.612000 150.806000 Z" transform="scale(1.000000,1.000000) translate(99.194008,111.316448)" fill="url(#105553126890608140488559843152)" opacity="1.000000"></path>
        <path d="M 184.884747 92.828308 L 184.681558 86.554311 L 184.071987 80.394410 L 183.056031 74.348584 L 181.633683 68.416808 L 179.837037 62.641880 L 177.698184 57.066599 L 175.217114 51.690946 L 172.393816 46.514901 L 169.249693 41.545610 L 165.806140 36.790223 L 162.063145 32.248724 L 158.020691 27.921094 L 153.714448 23.857254 L 149.180080 20.107129 L 144.417567 16.670705 L 139.426886 13.547968 L 134.225888 10.746057 L 128.832413 8.272114 L 123.246439 6.126132 L 117.467944 4.308101 L 111.536167 2.860802 L 105.490341 1.827021 L 99.330442 1.206755 L 93.056446 1.000000 L 86.778884 1.206755 L 80.608289 1.827021 L 74.544639 2.860802 L 68.587911 4.308101 L 62.784464 6.126132 L 57.180666 8.272114 L 51.776496 10.746057 L 46.571933 13.547968 L 41.581255 16.670705 L 36.818739 20.107129 L 32.284369 23.857254 L 27.978128 27.921094 L 23.935677 32.248724 L 20.192682 36.790223 L 16.749128 41.545610 L 13.605003 46.514901 L 10.778139 51.690946 L 8.286373 57.066599 L 6.129696 62.641880 L 4.308100 68.416808 L 2.860802 74.348584 L 1.827021 80.394410 L 1.206755 86.554311 L 1.000000 92.828308 L 1.185366 98.610367 L 1.741467 104.092964 L 2.668305 109.276120 L 3.965883 114.159853 L 5.534381 118.772666 L 7.273982 123.143058 L 9.184692 127.271046 L 11.266518 131.156646 L 15.743860 138.229139 L 20.506384 144.389048 L 29.289961 154.313349 L 29.518106 154.997784 L 30.972529 156.224064 L 32.598061 157.165160 L 34.337665 157.792562 L 36.134306 158.077740 L 37.959465 157.992188 L 39.784624 157.507377 L 41.524228 156.651838 L 43.092724 155.454074 L 44.418817 153.999650 L 45.431209 152.374118 L 46.115645 150.634512 L 46.457861 148.837873 L 46.429343 147.026972 L 46.001571 145.244591 L 45.188806 143.576281 L 44.005304 142.107599 L 43.320869 141.423164 L 36.704669 134.635855 L 32.911759 130.158512 L 29.289961 124.825626 L 27.589566 121.824092 L 26.024637 118.580164 L 23.301159 111.365078 L 22.228162 107.361842 L 21.461738 103.052051 L 21.001885 98.435690 L 20.848602 93.512743 L 21.201511 85.877004 L 22.260241 78.483697 L 24.024798 71.332795 L 26.495187 64.424272 L 29.578710 57.850835 L 33.182676 51.705193 L 37.307102 45.987324 L 41.952000 40.697207 L 47.067443 35.888329 L 52.603509 31.614183 L 58.560218 27.874755 L 64.937593 24.670030 L 71.635796 22.099827 L 78.554988 20.263975 L 85.695196 19.162467 L 93.056446 18.795299 L 100.410566 19.162467 L 107.529384 20.263975 L 114.412929 22.099827 L 121.061226 24.670030 L 127.388696 27.874755 L 133.309759 31.614183 L 138.824435 35.888329 L 143.932747 40.697207 L 148.577643 45.987324 L 152.702069 51.705193 L 156.306036 57.850835 L 159.389560 64.424272 L 161.859948 71.332795 L 163.624505 78.483697 L 164.683236 85.877004 L 165.036145 93.512743 L 164.907813 98.428561 L 164.522819 103.023535 L 163.881162 107.297679 L 162.982841 111.251006 L 160.687136 118.366277 L 157.906618 124.540444 L 154.783890 129.830556 L 151.461527 134.293637 L 145.415688 141.423164 L 144.731254 141.879454 L 143.562009 143.447950 L 142.792022 145.187555 L 142.392769 147.012714 L 142.335733 148.837873 L 142.635175 150.634512 L 143.305348 152.374118 L 144.317739 153.999650 L 145.643833 155.454074 L 147.183815 156.687484 L 148.837863 157.535896 L 150.605983 157.999313 L 152.488178 158.077740 L 154.348986 157.799688 L 156.052939 157.193679 L 157.600045 156.259712 L 158.990307 154.997784 L 159.446596 154.313349 L 163.467645 149.721936 L 167.773883 144.389048 L 172.065860 138.229139 L 176.044134 131.156646 L 177.872862 127.271046 L 179.537604 123.143058 L 181.038366 118.772666 L 182.375153 114.159853 L 183.473103 109.276120 L 184.257351 104.092964 L 184.727898 98.610367 L 184.884747 92.828308 Z M 93.740880 192.869832 L 95.715766 192.695160 L 97.533793 192.171142 L 99.194968 191.297776 L 100.699298 190.075057 L 101.946968 188.602806 L 102.838158 186.980842 L 103.372871 185.209158 L 103.551109 183.287747 L 103.551109 102.410393 L 103.372871 100.488982 L 102.838158 98.717298 L 101.946968 97.095333 L 100.699298 95.623083 L 99.194968 94.400364 L 97.533793 93.526997 L 95.715766 93.002980 L 93.740880 92.828308 L 91.858688 93.013675 L 90.090563 93.569779 L 88.479289 94.453839 L 87.067644 95.623083 L 85.884142 97.034728 L 84.957304 98.646002 L 84.358421 100.442643 L 84.158797 102.410393 L 84.158797 183.287747 L 84.358421 185.255497 L 84.957304 187.052137 L 85.884142 188.663408 L 87.067644 190.075057 L 88.479289 191.244304 L 90.090563 192.128361 L 91.858688 192.684462 L 93.740880 192.869832 Z" transform="scale(1.000000,1.000000) translate(157.057627,165.187517)" fill="#000000" opacity="1.000000"></path>
    </g>
</svg>