<svg xmlns="http://www.w3.org/2000/svg" xmlns:xlink="http://www.w3.org/1999/xlink" id="Layer_1" x="0px" y="0px" viewBox="0 0 55 55" style="enable-background:new 0 0 55 55;" xml:space="preserve"><style type="text/css">	.st0{fill:#0C153E;}	.st1{opacity:0.7;fill:url(#SVGID_1_);enable-background:new    ;}</style><rect class="st0" width="55" height="55"></rect><linearGradient id="SVGID_1_" gradientUnits="userSpaceOnUse" x1="15.9763" y1="304.7857" x2="37.5343" y2="272.1991" gradientTransform="matrix(1 0 0 1 0 -258.1102)">	<stop offset="0" style="stop-color:#54C8E0"></stop>	<stop offset="1" style="stop-color:#19E789"></stop></linearGradient><path class="st1" d="M49.8,29.2l-8.5-17.6c-0.2-0.6-0.8-0.9-1.4-0.9H17.1c-0.6,0-1,0.3-1.4,0.8L5.3,29.1c-0.2,0.5-0.2,1,0,1.4 c0.2,0.4,0.8,0.8,1.4,0.8h8.6c0.6,0,1-0.3,1.3-0.7l5.8-9.4l11.1,0.1c0.9,0,1.5-0.7,1.5-1.4c0-0.9-0.6-1.4-1.5-1.4l-12-0.2 c-0.6,0-1,0.3-1.4,0.7l-5.8,9.4h-5L18,13.8h20.9l7.7,15.9l-2.8,4.8l-6.4,0.1l2.7-4.1c0.2-0.4,0.3-1,0.1-1.4l-1.5-3.2 c-0.3-0.8-1.3-1.1-2-0.7c-0.8,0.3-1.1,1.2-0.7,1.9l1.2,2.5l-3.2,5.1l-11,0.1l3.4-5h3.5c0.9,0,1.5-0.7,1.5-1.4c0-0.7-0.7-1.5-1.5-1.5 h-4.3c-0.5,0-1,0.2-1.3,0.7l-9.6,14.1c0,0-0.1,0.1-0.1,0.2s-0.1,0.1-0.1,0.2s0,0.1,0,0.2s0,0.1-0.1,0.2c0,0.1,0,0.1,0,0.2 c0,0.1,0,0.1,0,0.2c0,0.1,0,0.1,0,0.2c0,0.1,0,0.1,0,0.2c0,0.1,0,0.1,0.1,0.2c0,0.1,0,0.1,0.1,0.2c0,0.1,0.1,0.1,0.1,0.2 s0.1,0.1,0.1,0.2s0.1,0.1,0.1,0.2l0.1,0.1c0.1,0.1,0.1,0.1,0.2,0.1l0.1,0.1c0.1,0.1,0.2,0.1,0.2,0.2c0.1,0,0.1,0.1,0.2,0.1 c0.2,0.1,0.3,0.1,0.4,0.1c0.2,0,0.2,0,0.4-0.1c0,0,0,0,0.1,0c0.1,0,0.2-0.1,0.3-0.1l0.1-0.1c0.1-0.1,0.2-0.1,0.2-0.2l0.1-0.1 c0.1-0.1,0.2-0.2,0.2-0.2l3.7-5.6l23.9-0.3c0.6,0,1-0.3,1.3-0.8l3.6-6.1C49.9,30.1,49.9,29.6,49.8,29.2z"></path></svg>